<mxfile host="Electron" modified="2024-04-09T14:56:04.039Z" agent="Mozilla/5.0 (X11; Linux x86_64) AppleWebKit/537.36 (KHTML, like Gecko) draw.io/24.1.0 Chrome/120.0.6099.109 Electron/28.1.0 Safari/537.36" etag="_j3E2wc0QCMHw0iyz0XG" version="24.1.0" type="device">
  <diagram name="Page-1" id="1ibFX0MJZ84PrfsPRb66">
    <mxGraphModel dx="2226" dy="2063" grid="1" gridSize="10" guides="1" tooltips="1" connect="1" arrows="1" fold="1" page="1" pageScale="1" pageWidth="850" pageHeight="1100" math="0" shadow="0">
      <root>
        <mxCell id="0" />
        <mxCell id="1" parent="0" />
        <mxCell id="zh7ZX9I1q0Az6KYwqG7l-5" value="API&lt;div&gt;Gateway&lt;/div&gt;" style="rounded=1;whiteSpace=wrap;html=1;absoluteArcSize=1;arcSize=14;strokeWidth=2;" vertex="1" parent="1">
          <mxGeometry x="280" y="180" width="60" height="305" as="geometry" />
        </mxCell>
        <mxCell id="zh7ZX9I1q0Az6KYwqG7l-6" value="Package service" style="rounded=1;whiteSpace=wrap;html=1;absoluteArcSize=1;arcSize=14;strokeWidth=2;" vertex="1" parent="1">
          <mxGeometry x="570" y="85" width="180" height="50" as="geometry" />
        </mxCell>
        <mxCell id="zh7ZX9I1q0Az6KYwqG7l-7" value="Delivery Service" style="rounded=1;whiteSpace=wrap;html=1;absoluteArcSize=1;arcSize=14;strokeWidth=2;" vertex="1" parent="1">
          <mxGeometry x="580" y="305" width="180" height="50" as="geometry" />
        </mxCell>
        <mxCell id="zh7ZX9I1q0Az6KYwqG7l-8" value="User service" style="rounded=1;whiteSpace=wrap;html=1;absoluteArcSize=1;arcSize=14;strokeWidth=2;" vertex="1" parent="1">
          <mxGeometry x="580" y="560" width="190" height="50" as="geometry" />
        </mxCell>
        <mxCell id="zh7ZX9I1q0Az6KYwqG7l-9" value="Persist Events" style="strokeWidth=2;html=1;shape=mxgraph.flowchart.direct_data;whiteSpace=wrap;direction=south;" vertex="1" parent="1">
          <mxGeometry x="1890" y="190" width="60" height="140" as="geometry" />
        </mxCell>
        <mxCell id="zh7ZX9I1q0Az6KYwqG7l-10" value="Web Apps" style="rounded=1;whiteSpace=wrap;html=1;absoluteArcSize=1;arcSize=14;strokeWidth=2;" vertex="1" parent="1">
          <mxGeometry x="-90" y="315" width="160" height="50" as="geometry" />
        </mxCell>
        <mxCell id="zh7ZX9I1q0Az6KYwqG7l-12" value="Exchange&lt;div&gt;&lt;br&gt;&lt;div&gt;Channel&lt;/div&gt;&lt;div&gt;&lt;br&gt;&lt;/div&gt;&lt;div&gt;Queue&lt;/div&gt;&lt;/div&gt;" style="rounded=1;whiteSpace=wrap;html=1;absoluteArcSize=1;arcSize=14;strokeWidth=2;" vertex="1" parent="1">
          <mxGeometry x="1590" y="90" width="60" height="275" as="geometry" />
        </mxCell>
        <mxCell id="zh7ZX9I1q0Az6KYwqG7l-13" value="Message&lt;div&gt;Brokker&lt;/div&gt;" style="whiteSpace=wrap;html=1;shape=mxgraph.basic.octagon2;align=center;verticalAlign=middle;dx=15;" vertex="1" parent="1">
          <mxGeometry x="1730" y="190" width="100" height="90" as="geometry" />
        </mxCell>
        <mxCell id="zh7ZX9I1q0Az6KYwqG7l-15" value="&lt;i style=&quot;color: rgb(255, 0, 0); font-size: 15px;&quot;&gt;Publish&lt;/i&gt;" style="rounded=1;whiteSpace=wrap;html=1;absoluteArcSize=1;arcSize=14;strokeWidth=2;" vertex="1" parent="1">
          <mxGeometry x="840" y="600" width="165" height="50" as="geometry" />
        </mxCell>
        <mxCell id="zh7ZX9I1q0Az6KYwqG7l-17" value="&lt;font color=&quot;#ff0000&quot; size=&quot;1&quot; style=&quot;&quot;&gt;&lt;i style=&quot;font-size: 15px;&quot;&gt;Publish&lt;/i&gt;&lt;/font&gt;" style="rounded=1;whiteSpace=wrap;html=1;absoluteArcSize=1;arcSize=14;strokeWidth=2;" vertex="1" parent="1">
          <mxGeometry x="1255" y="40" width="165" height="50" as="geometry" />
        </mxCell>
        <mxCell id="zh7ZX9I1q0Az6KYwqG7l-18" value="&lt;i style=&quot;font-size: 15px;&quot;&gt;&lt;font color=&quot;#3399ff&quot;&gt;Subscribe&lt;/font&gt;&lt;/i&gt;" style="rounded=1;whiteSpace=wrap;html=1;absoluteArcSize=1;arcSize=14;strokeWidth=2;" vertex="1" parent="1">
          <mxGeometry x="1255" y="130" width="165" height="50" as="geometry" />
        </mxCell>
        <mxCell id="zh7ZX9I1q0Az6KYwqG7l-20" value="&lt;span style=&quot;font-size: 15px;&quot;&gt;&lt;i style=&quot;&quot;&gt;&lt;font color=&quot;#3399ff&quot;&gt;Subscribe&lt;/font&gt;&lt;/i&gt;&lt;/span&gt;&lt;div&gt;&lt;font color=&quot;#ff0000&quot;&gt;&lt;span style=&quot;font-size: 15px;&quot;&gt;&lt;i&gt;&lt;br&gt;&lt;/i&gt;&lt;/span&gt;&lt;/font&gt;&lt;/div&gt;" style="rounded=1;whiteSpace=wrap;html=1;absoluteArcSize=1;arcSize=14;strokeWidth=2;" vertex="1" parent="1">
          <mxGeometry x="1020" y="600" width="165" height="50" as="geometry" />
        </mxCell>
        <mxCell id="zh7ZX9I1q0Az6KYwqG7l-23" value="" style="endArrow=classic;html=1;rounded=0;entryX=0;entryY=0.75;entryDx=0;entryDy=0;" edge="1" parent="1" target="zh7ZX9I1q0Az6KYwqG7l-6">
          <mxGeometry relative="1" as="geometry">
            <mxPoint x="340" y="260" as="sourcePoint" />
            <mxPoint x="500" y="260" as="targetPoint" />
          </mxGeometry>
        </mxCell>
        <mxCell id="zh7ZX9I1q0Az6KYwqG7l-26" value="&lt;font style=&quot;font-size: 15px;&quot;&gt;/package-service&lt;/font&gt;" style="edgeLabel;html=1;align=center;verticalAlign=middle;resizable=0;points=[];" vertex="1" connectable="0" parent="zh7ZX9I1q0Az6KYwqG7l-23">
          <mxGeometry x="-0.1637" y="-1" relative="1" as="geometry">
            <mxPoint as="offset" />
          </mxGeometry>
        </mxCell>
        <mxCell id="zh7ZX9I1q0Az6KYwqG7l-28" value="" style="endArrow=classic;html=1;rounded=0;exitX=1;exitY=0.5;exitDx=0;exitDy=0;" edge="1" parent="1" source="zh7ZX9I1q0Az6KYwqG7l-5">
          <mxGeometry relative="1" as="geometry">
            <mxPoint x="346" y="327.75" as="sourcePoint" />
            <mxPoint x="580" y="332.25" as="targetPoint" />
          </mxGeometry>
        </mxCell>
        <mxCell id="zh7ZX9I1q0Az6KYwqG7l-31" value="&lt;font style=&quot;font-size: 15px;&quot;&gt;/delivery-service&lt;/font&gt;" style="edgeLabel;html=1;align=center;verticalAlign=middle;resizable=0;points=[];" vertex="1" connectable="0" parent="zh7ZX9I1q0Az6KYwqG7l-28">
          <mxGeometry x="-0.1637" y="-1" relative="1" as="geometry">
            <mxPoint as="offset" />
          </mxGeometry>
        </mxCell>
        <mxCell id="zh7ZX9I1q0Az6KYwqG7l-32" value="" style="endArrow=classic;html=1;rounded=0;exitX=1;exitY=0.656;exitDx=0;exitDy=0;exitPerimeter=0;entryX=-0.032;entryY=0.46;entryDx=0;entryDy=0;entryPerimeter=0;" edge="1" parent="1" source="zh7ZX9I1q0Az6KYwqG7l-5" target="zh7ZX9I1q0Az6KYwqG7l-8">
          <mxGeometry relative="1" as="geometry">
            <mxPoint x="290" y="632" as="sourcePoint" />
            <mxPoint x="460" y="620" as="targetPoint" />
          </mxGeometry>
        </mxCell>
        <mxCell id="zh7ZX9I1q0Az6KYwqG7l-35" value="&lt;font style=&quot;font-size: 15px;&quot;&gt;/user-service&lt;/font&gt;" style="edgeLabel;html=1;align=center;verticalAlign=middle;resizable=0;points=[];" vertex="1" connectable="0" parent="zh7ZX9I1q0Az6KYwqG7l-32">
          <mxGeometry x="-0.1637" y="-1" relative="1" as="geometry">
            <mxPoint as="offset" />
          </mxGeometry>
        </mxCell>
        <mxCell id="zh7ZX9I1q0Az6KYwqG7l-40" value="" style="endArrow=classic;html=1;rounded=0;entryX=-0.05;entryY=0.482;entryDx=0;entryDy=0;entryPerimeter=0;" edge="1" parent="1" target="zh7ZX9I1q0Az6KYwqG7l-5">
          <mxGeometry relative="1" as="geometry">
            <mxPoint x="70" y="333" as="sourcePoint" />
            <mxPoint x="270" y="370" as="targetPoint" />
          </mxGeometry>
        </mxCell>
        <mxCell id="zh7ZX9I1q0Az6KYwqG7l-41" value="Label" style="edgeLabel;resizable=0;html=1;;align=center;verticalAlign=middle;" connectable="0" vertex="1" parent="zh7ZX9I1q0Az6KYwqG7l-40">
          <mxGeometry relative="1" as="geometry" />
        </mxCell>
        <mxCell id="zh7ZX9I1q0Az6KYwqG7l-46" value="&lt;font style=&quot;font-size: 14px;&quot;&gt;REST API&lt;/font&gt;" style="edgeLabel;html=1;align=center;verticalAlign=middle;resizable=0;points=[];" vertex="1" connectable="0" parent="zh7ZX9I1q0Az6KYwqG7l-40">
          <mxGeometry x="0.1393" y="2" relative="1" as="geometry">
            <mxPoint as="offset" />
          </mxGeometry>
        </mxCell>
        <mxCell id="zh7ZX9I1q0Az6KYwqG7l-57" value="" style="strokeWidth=2;html=1;shape=mxgraph.flowchart.annotation_2;align=left;labelPosition=right;pointerEvents=1;direction=west;strokeColor=default;gradientColor=none;" vertex="1" parent="1">
          <mxGeometry x="1420" y="60" width="170" height="100" as="geometry" />
        </mxCell>
        <mxCell id="zh7ZX9I1q0Az6KYwqG7l-73" value="" style="rounded=1;whiteSpace=wrap;html=1;absoluteArcSize=1;arcSize=14;strokeWidth=2;dashed=1;fillStyle=dashed;" vertex="1" parent="1">
          <mxGeometry x="1167.5" y="-20" width="340" height="250" as="geometry" />
        </mxCell>
        <mxCell id="zh7ZX9I1q0Az6KYwqG7l-65" value="" style="endArrow=classic;html=1;rounded=0;strokeWidth=2;exitX=1;exitY=0.553;exitDx=0;exitDy=0;exitPerimeter=0;entryX=-0.02;entryY=0.589;entryDx=0;entryDy=0;entryPerimeter=0;" edge="1" parent="1" source="zh7ZX9I1q0Az6KYwqG7l-12" target="zh7ZX9I1q0Az6KYwqG7l-13">
          <mxGeometry width="50" height="50" relative="1" as="geometry">
            <mxPoint x="1290" y="440" as="sourcePoint" />
            <mxPoint x="1720" y="242" as="targetPoint" />
            <Array as="points" />
          </mxGeometry>
        </mxCell>
        <mxCell id="zh7ZX9I1q0Az6KYwqG7l-67" value="" style="edgeStyle=elbowEdgeStyle;elbow=vertical;endArrow=classic;html=1;curved=0;rounded=0;endSize=8;startSize=8;strokeWidth=2;entryX=0.357;entryY=1;entryDx=0;entryDy=0;entryPerimeter=0;" edge="1" parent="1" source="zh7ZX9I1q0Az6KYwqG7l-13" target="zh7ZX9I1q0Az6KYwqG7l-9">
          <mxGeometry width="50" height="50" relative="1" as="geometry">
            <mxPoint x="1490" y="430" as="sourcePoint" />
            <mxPoint x="1880" y="240" as="targetPoint" />
            <Array as="points">
              <mxPoint x="1850" y="240" />
            </Array>
          </mxGeometry>
        </mxCell>
        <mxCell id="zh7ZX9I1q0Az6KYwqG7l-74" value="RabbitMQ Events" style="text;html=1;align=center;verticalAlign=middle;resizable=0;points=[];autosize=1;strokeColor=none;fillColor=none;" vertex="1" parent="1">
          <mxGeometry x="1277.5" width="120" height="30" as="geometry" />
        </mxCell>
        <mxCell id="zh7ZX9I1q0Az6KYwqG7l-77" value="" style="endArrow=classic;html=1;rounded=0;exitX=-0.01;exitY=0.6;exitDx=0;exitDy=0;exitPerimeter=0;entryX=0.983;entryY=0.563;entryDx=0;entryDy=0;entryPerimeter=0;fontSize=12;strokeWidth=2;" edge="1" parent="1">
          <mxGeometry width="50" height="50" relative="1" as="geometry">
            <mxPoint x="1730.02" y="227" as="sourcePoint" />
            <mxPoint x="1650" y="227.82499999999982" as="targetPoint" />
          </mxGeometry>
        </mxCell>
        <mxCell id="zh7ZX9I1q0Az6KYwqG7l-88" value="" style="rounded=1;whiteSpace=wrap;html=1;absoluteArcSize=1;arcSize=14;strokeWidth=2;dashed=1;fillStyle=dashed;" vertex="1" parent="1">
          <mxGeometry x="810" y="525" width="380" height="225" as="geometry" />
        </mxCell>
        <mxCell id="zh7ZX9I1q0Az6KYwqG7l-94" value="Socket .io Events&lt;div&gt;&lt;br&gt;&lt;/div&gt;" style="text;strokeColor=none;align=center;fillColor=none;html=1;verticalAlign=middle;whiteSpace=wrap;rounded=0;" vertex="1" parent="1">
          <mxGeometry x="830" y="720" width="60" height="30" as="geometry" />
        </mxCell>
        <mxCell id="zh7ZX9I1q0Az6KYwqG7l-99" value="" style="endArrow=classic;startArrow=classic;html=1;rounded=0;entryX=0.5;entryY=1;entryDx=0;entryDy=0;exitX=0;exitY=0.5;exitDx=0;exitDy=0;exitPerimeter=0;" edge="1" parent="1" source="zh7ZX9I1q0Az6KYwqG7l-116" target="zh7ZX9I1q0Az6KYwqG7l-7">
          <mxGeometry width="50" height="50" relative="1" as="geometry">
            <mxPoint x="790" y="500" as="sourcePoint" />
            <mxPoint x="680" y="410" as="targetPoint" />
            <Array as="points">
              <mxPoint x="1010" y="440" />
              <mxPoint x="790" y="440" />
              <mxPoint x="670" y="440" />
              <mxPoint x="670" y="410" />
            </Array>
          </mxGeometry>
        </mxCell>
        <mxCell id="zh7ZX9I1q0Az6KYwqG7l-107" value="Database" style="strokeWidth=2;html=1;shape=mxgraph.flowchart.direct_data;whiteSpace=wrap;direction=south;" vertex="1" parent="1">
          <mxGeometry x="1330" y="330" width="60" height="125" as="geometry" />
        </mxCell>
        <mxCell id="zh7ZX9I1q0Az6KYwqG7l-108" value="" style="endArrow=classic;html=1;rounded=0;entryX=0.5;entryY=1;entryDx=0;entryDy=0;entryPerimeter=0;exitX=0.833;exitY=1;exitDx=0;exitDy=0;exitPerimeter=0;" edge="1" parent="1" source="zh7ZX9I1q0Az6KYwqG7l-7" target="zh7ZX9I1q0Az6KYwqG7l-107">
          <mxGeometry width="50" height="50" relative="1" as="geometry">
            <mxPoint x="730" y="400" as="sourcePoint" />
            <mxPoint x="890" y="330" as="targetPoint" />
            <Array as="points">
              <mxPoint x="730" y="400" />
            </Array>
          </mxGeometry>
        </mxCell>
        <mxCell id="zh7ZX9I1q0Az6KYwqG7l-109" value="" style="edgeStyle=elbowEdgeStyle;elbow=vertical;endArrow=classic;html=1;curved=0;rounded=0;endSize=8;startSize=8;entryX=1;entryY=0.5;entryDx=0;entryDy=0;entryPerimeter=0;" edge="1" parent="1" target="zh7ZX9I1q0Az6KYwqG7l-107">
          <mxGeometry width="50" height="50" relative="1" as="geometry">
            <mxPoint x="630" y="610" as="sourcePoint" />
            <mxPoint x="910" y="370" as="targetPoint" />
            <Array as="points">
              <mxPoint x="990" y="790" />
            </Array>
          </mxGeometry>
        </mxCell>
        <mxCell id="zh7ZX9I1q0Az6KYwqG7l-110" value="" style="endArrow=classic;html=1;rounded=0;entryX=0.02;entryY=0.24;entryDx=0;entryDy=0;entryPerimeter=0;" edge="1" parent="1" target="zh7ZX9I1q0Az6KYwqG7l-120">
          <mxGeometry width="50" height="50" relative="1" as="geometry">
            <mxPoint x="680" y="80" as="sourcePoint" />
            <mxPoint x="1150" as="targetPoint" />
            <Array as="points">
              <mxPoint x="680" />
              <mxPoint x="1100" />
              <mxPoint x="1100" y="84" />
            </Array>
          </mxGeometry>
        </mxCell>
        <mxCell id="zh7ZX9I1q0Az6KYwqG7l-111" value="" style="endArrow=classic;html=1;rounded=0;entryX=-0.02;entryY=0.86;entryDx=0;entryDy=0;entryPerimeter=0;" edge="1" parent="1" target="zh7ZX9I1q0Az6KYwqG7l-120">
          <mxGeometry width="50" height="50" relative="1" as="geometry">
            <mxPoint x="660" y="300" as="sourcePoint" />
            <mxPoint x="1150" y="180" as="targetPoint" />
            <Array as="points">
              <mxPoint x="660" y="180" />
              <mxPoint x="1100" y="180" />
              <mxPoint x="1100" y="150" />
            </Array>
          </mxGeometry>
        </mxCell>
        <mxCell id="zh7ZX9I1q0Az6KYwqG7l-112" value="" style="endArrow=classic;html=1;rounded=0;entryX=0.208;entryY=1;entryDx=0;entryDy=0;entryPerimeter=0;exitX=1;exitY=0.5;exitDx=0;exitDy=0;" edge="1" parent="1" source="zh7ZX9I1q0Az6KYwqG7l-6" target="zh7ZX9I1q0Az6KYwqG7l-107">
          <mxGeometry width="50" height="50" relative="1" as="geometry">
            <mxPoint x="1010" y="380" as="sourcePoint" />
            <mxPoint x="1060" y="330" as="targetPoint" />
            <Array as="points">
              <mxPoint x="1030" y="110" />
              <mxPoint x="1030" y="360" />
            </Array>
          </mxGeometry>
        </mxCell>
        <mxCell id="zh7ZX9I1q0Az6KYwqG7l-114" value="" style="endArrow=classic;startArrow=classic;html=1;rounded=0;exitX=0.55;exitY=0.98;exitDx=0;exitDy=0;exitPerimeter=0;entryX=0;entryY=0.5;entryDx=0;entryDy=0;entryPerimeter=0;" edge="1" parent="1" source="zh7ZX9I1q0Az6KYwqG7l-10" target="zh7ZX9I1q0Az6KYwqG7l-119">
          <mxGeometry width="50" height="50" relative="1" as="geometry">
            <mxPoint y="840" as="sourcePoint" />
            <mxPoint x="1013" y="820" as="targetPoint" />
            <Array as="points">
              <mxPoint x="-2" y="830" />
              <mxPoint x="1010" y="830" />
            </Array>
          </mxGeometry>
        </mxCell>
        <mxCell id="zh7ZX9I1q0Az6KYwqG7l-115" value="&lt;font style=&quot;font-size: 15px;&quot;&gt;Web Socket&lt;/font&gt;" style="edgeLabel;html=1;align=center;verticalAlign=middle;resizable=0;points=[];" vertex="1" connectable="0" parent="zh7ZX9I1q0Az6KYwqG7l-114">
          <mxGeometry x="-0.6908" y="-2" relative="1" as="geometry">
            <mxPoint as="offset" />
          </mxGeometry>
        </mxCell>
        <mxCell id="zh7ZX9I1q0Az6KYwqG7l-116" value="" style="strokeWidth=2;html=1;shape=mxgraph.flowchart.annotation_1;align=left;pointerEvents=1;direction=south;" vertex="1" parent="1">
          <mxGeometry x="930" y="550" width="160" height="50" as="geometry" />
        </mxCell>
        <mxCell id="zh7ZX9I1q0Az6KYwqG7l-119" value="" style="strokeWidth=2;html=1;shape=mxgraph.flowchart.annotation_1;align=left;pointerEvents=1;direction=north;" vertex="1" parent="1">
          <mxGeometry x="930" y="650" width="160" height="50" as="geometry" />
        </mxCell>
        <mxCell id="zh7ZX9I1q0Az6KYwqG7l-120" value="" style="strokeWidth=2;html=1;shape=mxgraph.flowchart.annotation_1;align=left;pointerEvents=1;" vertex="1" parent="1">
          <mxGeometry x="1205" y="60" width="50" height="100" as="geometry" />
        </mxCell>
      </root>
    </mxGraphModel>
  </diagram>
</mxfile>
